<svg xmlns="http://www.w3.org/2000/svg" x="0px" y="0px"
width="50" height="50"
viewBox="0 0 171 171"
style=" fill:#000000;"><g fill="none" fill-rule="nonzero" stroke="none" stroke-width="1" stroke-linecap="butt" stroke-linejoin="miter" stroke-miterlimit="10" stroke-dasharray="" stroke-dashoffset="0" font-family="none" font-weight="none" font-size="none" text-anchor="none" style="mix-blend-mode: normal"><path d="M0,171.99654v-171.99654h171.99654v171.99654z" fill="none"></path><g fill="#0290ff"><path d="M119.01867,115.59867c-5.81133,-2.39133 -12.99867,-5.47734 -12.99867,-7.86867v-15.39c8.55,-6.49265 13.68,-16.75265 13.68,-27.36v-20.52c0,-18.81 -15.39,-34.2 -34.2,-34.2c-18.81,0 -34.2,15.39 -34.2,34.2v20.52c0,10.60735 5.13,21.20133 13.68,27.36v15.39c0,2.05735 -7.18734,5.13 -12.99867,7.86867c-14.01398,5.81133 -34.88133,14.70867 -34.88133,38.30133v3.42h136.8v-3.42c0,-23.59265 -20.86734,-32.49 -34.88133,-38.30133z"></path></g></g></svg>